<?xml version="1.0" standalone="no"?>
<!DOCTYPE svg PUBLIC "-//W3C//DTD SVG 20010904//EN"
 "http://www.w3.org/TR/2001/REC-SVG-20010904/DTD/svg10.dtd">
<svg version="1.0" xmlns="http://www.w3.org/2000/svg"
 width="1451.000000pt" height="355.000000pt" viewBox="0 0 1451.000000 355.000000"
 preserveAspectRatio="xMidYMid meet">

<g transform="translate(0.000000,355.000000) scale(0.100000,-0.100000)"
fill="#000000" stroke="none">
<path d="M1582 2067 c-226 -226 -262 -266 -262 -292 0 -26 36 -66 263 -293
234 -234 266 -262 294 -262 32 0 53 21 53 51 0 7 -110 124 -245 259 l-245 245
231 230 c127 127 237 242 245 258 21 38 4 67 -39 67 -29 0 -60 -28 -295 -263z"/>
<path d="M2650 2310 c-6 -12 -9 -28 -6 -38 3 -9 114 -125 246 -257 l240 -240
-245 -245 c-157 -157 -245 -253 -245 -266 0 -29 19 -44 55 -44 27 0 63 33 293
263 202 203 262 268 262 287 0 19 -66 91 -263 293 -236 241 -265 268 -294 267
-22 0 -36 -6 -43 -20z"/>
<path d="M9681 2229 c-167 -28 -259 -132 -249 -284 9 -132 61 -192 240 -278
63 -30 122 -62 131 -72 23 -23 21 -68 -4 -91 -41 -37 -213 -17 -342 40 l-38
17 3 -113 3 -113 60 -24 c47 -19 85 -25 175 -29 170 -7 260 20 344 104 100
100 93 296 -12 385 -21 16 -89 55 -152 85 -126 61 -160 86 -160 119 0 63 110
77 242 31 40 -14 76 -22 79 -18 9 9 69 164 69 178 0 13 -116 50 -200 63 -75
12 -113 12 -189 0z"/>
<path d="M7830 2217 c-77 -22 -139 -59 -191 -114 -84 -89 -119 -191 -119 -353
0 -171 38 -278 129 -363 28 -26 71 -56 96 -67 118 -51 304 -50 438 2 27 10 27
11 27 109 0 55 -4 99 -8 99 -5 0 -35 -9 -68 -21 -32 -11 -89 -23 -126 -26
-162 -14 -238 73 -238 272 0 130 40 224 110 260 45 23 148 19 227 -10 37 -13
68 -23 69 -22 14 24 70 184 66 189 -4 3 -36 16 -72 29 -80 27 -269 36 -340 16z"/>
<path d="M12430 1858 c-67 -205 -134 -414 -151 -463 -16 -50 -29 -94 -29 -98
0 -4 62 -6 137 -5 l137 3 21 80 22 80 154 3 155 2 20 -82 20 -83 137 -3 c75
-1 137 1 137 4 0 4 -68 216 -152 471 l-152 463 -167 0 -168 0 -121 -372z m339
14 c24 -97 46 -183 49 -189 3 -10 -20 -13 -95 -13 l-100 0 46 190 c25 104 48
190 51 190 3 0 25 -80 49 -178z"/>
<path d="M3660 1756 l0 -466 120 0 120 0 0 155 0 155 43 0 c238 1 370 102 384
295 8 103 -15 174 -75 234 -75 74 -116 84 -374 89 l-218 4 0 -466z m395 239
c32 -31 34 -95 5 -142 -21 -35 -75 -57 -125 -51 l-30 3 -3 108 -3 107 66 0
c57 0 69 -3 90 -25z"/>
<path d="M4685 2208 c-16 -45 -295 -908 -295 -912 0 -3 60 -6 133 -6 l133 0
24 90 23 90 156 -2 155 -3 13 -45 c6 -25 17 -64 23 -87 l11 -43 133 0 134 0
-152 463 -152 462 -167 3 c-129 2 -168 0 -172 -10z m226 -338 c27 -106 49
-194 49 -196 0 -2 -45 -4 -100 -4 -55 0 -100 3 -100 8 0 16 95 390 99 387 2
-2 25 -90 52 -195z"/>
<path d="M5370 2120 l0 -100 115 0 115 0 0 -365 0 -365 120 0 120 0 0 365 0
365 115 0 115 0 0 100 0 100 -350 0 -350 0 0 -100z"/>
<path d="M6210 1755 l0 -465 120 0 120 0 0 170 0 170 39 0 38 0 99 -170 98
-170 138 0 138 0 -130 195 c-71 107 -131 198 -132 204 -2 5 17 25 42 44 90 68
128 189 96 298 -19 66 -62 114 -132 146 -75 34 -145 43 -351 43 l-183 0 0
-465z m353 274 c51 -14 77 -44 77 -90 0 -83 -41 -119 -135 -119 l-55 0 0 103
c0 57 3 107 7 110 10 10 63 8 106 -4z"/>
<path d="M7100 1755 l0 -465 120 0 120 0 0 465 0 465 -120 0 -120 0 0 -465z"/>
<path d="M8400 1755 l0 -465 125 0 125 0 0 159 0 159 36 21 c19 12 37 21 39
21 2 0 45 -81 96 -180 l92 -180 138 0 138 0 -111 198 c-61 108 -126 224 -144
258 l-34 61 126 179 c70 98 135 191 146 207 l19 27 -133 0 -133 0 -138 -202
-137 -201 0 201 0 202 -125 0 -125 0 0 -465z"/>
<path d="M10220 1755 l0 -465 125 0 125 0 0 465 0 465 -125 0 -125 0 0 -465z"/>
<path d="M10680 1755 l0 -465 305 0 305 0 0 100 0 100 -180 0 -180 0 0 365 0
365 -125 0 -125 0 0 -465z"/>
<path d="M11342 2208 c7 -18 230 -703 268 -820 l31 -98 149 0 149 0 151 459
c82 252 150 461 150 465 0 3 -63 6 -140 6 -77 0 -140 -2 -140 -4 0 -3 -30
-114 -66 -248 -37 -134 -75 -281 -84 -328 -15 -72 -19 -80 -24 -55 -15 66 -89
358 -125 490 l-38 140 -143 3 c-112 2 -141 0 -138 -10z"/>
</g>
</svg>
