<?xml version="1.0" standalone="no"?>
<!DOCTYPE svg PUBLIC "-//W3C//DTD SVG 20010904//EN"
 "http://www.w3.org/TR/2001/REC-SVG-20010904/DTD/svg10.dtd">
<svg version="1.0" xmlns="http://www.w3.org/2000/svg"
 width="840.000000pt" height="383.000000pt" viewBox="0 0 840.000000 383.000000"
 preserveAspectRatio="xMidYMid meet">

<g transform="translate(0.000000,383.000000) scale(0.100000,-0.100000)"
fill="#000000" stroke="none">
<path d="M1297 2062 c-75 -75 -137 -142 -137 -149 0 -15 271 -273 288 -273 7
0 15 7 19 16 4 11 -31 53 -118 140 l-124 124 124 124 c87 87 122 129 118 140
-4 9 -12 16 -19 16 -7 0 -75 -62 -151 -138z"/>
<path d="M1835 2190 c-10 -16 10 -41 129 -160 l116 -115 -126 -126 c-120 -120
-138 -149 -96 -149 21 0 282 259 282 280 0 21 -261 280 -282 280 -9 0 -20 -4
-23 -10z"/>
<path d="M2815 1909 c-41 -127 -75 -235 -75 -240 0 -5 29 -9 64 -9 l63 0 13
45 13 45 81 0 82 0 12 -45 12 -45 66 0 c48 0 64 3 61 13 -2 6 -38 114 -78 239
l-74 228 -82 0 -82 0 -76 -231z m208 -31 l7 -28 -55 0 c-30 0 -55 3 -55 6 0 6
21 90 42 169 l11 40 22 -80 c12 -44 25 -92 28 -107z"/>
<path d="M4476 2125 c-90 -32 -136 -109 -136 -230 0 -119 36 -183 122 -220 43
-17 136 -20 191 -4 37 10 37 11 37 61 0 44 -2 49 -17 43 -10 -5 -46 -10 -80
-13 -77 -5 -107 11 -122 65 -22 79 -7 157 37 197 17 15 32 18 74 14 29 -3 61
-9 71 -13 13 -6 20 1 33 30 8 21 13 43 10 50 -12 31 -152 44 -220 20z"/>
<path d="M5391 2122 c-53 -26 -76 -65 -75 -123 1 -67 24 -95 118 -144 68 -35
77 -43 74 -65 -3 -22 -8 -25 -49 -28 -28 -2 -66 5 -98 17 l-51 19 0 -58 0 -58
38 -13 c53 -19 170 -17 208 4 57 30 84 72 84 131 0 69 -22 96 -109 141 -81 40
-99 58 -81 80 16 19 71 19 117 0 20 -8 37 -14 38 -13 11 16 34 91 30 98 -20
32 -190 40 -244 12z"/>
<path d="M5720 1900 l0 -240 65 0 65 0 0 240 0 240 -65 0 -65 0 0 -240z"/>
<path d="M5950 1900 l0 -240 155 0 155 0 0 50 0 50 -90 0 -90 0 0 190 0 190
-65 0 -65 0 0 -240z"/>
<path d="M6293 2128 c2 -7 38 -115 78 -240 l74 -228 77 0 77 0 75 234 c42 129
76 237 76 240 0 3 -31 6 -69 6 l-70 0 -15 -52 c-30 -107 -65 -244 -68 -268 -2
-15 -15 23 -32 90 -16 63 -37 139 -46 170 l-16 55 -73 3 c-56 2 -72 0 -68 -10z"/>
<path d="M6905 2128 c-3 -7 -38 -115 -79 -240 l-73 -228 72 0 72 0 9 43 9 42
80 0 79 0 12 -40 11 -40 70 -3 71 -3 -78 238 -77 238 -87 3 c-63 2 -88 -1 -91
-10z m114 -165 c12 -45 21 -86 21 -92 0 -6 -20 -11 -46 -11 -43 0 -46 2 -40
23 3 12 13 55 23 94 9 40 18 72 19 70 1 -1 12 -39 23 -84z"/>
<path d="M2360 1895 l0 -235 60 0 60 0 0 79 0 78 56 6 c110 11 164 65 164 162
0 62 -25 106 -73 128 -26 13 -63 17 -151 17 l-116 0 0 -235z m198 129 c46 -32
12 -104 -48 -104 -30 0 -30 1 -30 53 0 30 3 57 7 60 11 12 48 7 71 -9z"/>
<path d="M3240 2085 l0 -45 55 0 55 0 0 -190 0 -190 65 0 65 0 0 190 0 190 55
0 55 0 0 45 0 45 -175 0 -175 0 0 -45z"/>
<path d="M3670 1895 l0 -235 60 0 60 0 0 90 c0 82 2 90 19 90 14 0 34 -26 71
-90 l52 -90 69 0 70 0 -71 103 -71 102 23 19 c62 50 76 126 35 187 -31 46 -72
58 -204 58 l-113 1 0 -235z m204 129 c37 -36 6 -94 -51 -94 l-33 0 0 55 0 55
34 0 c19 0 42 -7 50 -16z"/>
<path d="M4120 1895 l0 -235 60 0 60 0 0 235 0 235 -60 0 -60 0 0 -235z"/>
<path d="M4790 1895 l0 -235 60 0 60 0 0 84 c0 84 5 96 41 96 5 0 29 -40 54
-90 l45 -90 66 0 c78 0 79 -12 -11 147 -36 63 -62 120 -58 126 4 7 32 48 63
92 31 44 60 86 64 93 5 9 -8 12 -57 12 l-63 0 -70 -101 -69 -101 -3 101 -3
101 -59 0 -60 0 0 -235z"/>
</g>
</svg>
